<svg width="14" height="12" viewBox="0 0 14 12" fill="none" xmlns="http://www.w3.org/2000/svg">
<mask id="path-1-inside-1" fill="white">
<path fill-rule="evenodd" clip-rule="evenodd" d="M13.0735 4.51336C12.9882 4.26041 12.7625 4.07593 12.4892 4.0382L8.86731 3.52949L7.24875 0.35847C7.00576 -0.11949 6.19431 -0.11949 5.95131 0.35847L4.33276 3.52949L0.710909 4.0382C0.437534 4.07593 0.211892 4.26041 0.126553 4.51336C0.0412137 4.76632 0.112089 5.04303 0.308803 5.2289L2.92973 7.69696L2.3121 11.1824C2.26437 11.4438 2.37575 11.7093 2.5985 11.8658C2.82269 12.0238 3.11921 12.0433 3.36076 11.9189L6.59931 10.274L9.8393 11.9189C9.94489 11.972 10.0606 11.9986 10.1763 11.9986C10.3253 11.9986 10.4757 11.9539 10.6016 11.8658C10.8229 11.7093 10.9342 11.4438 10.888 11.1824L10.2703 7.69696L12.8913 5.2289C13.088 5.04303 13.1589 4.76632 13.0735 4.51336Z"/>
</mask>
<path fill-rule="evenodd" clip-rule="evenodd" d="M13.0735 4.51336C12.9882 4.26041 12.7625 4.07593 12.4892 4.0382L8.86731 3.52949L7.24875 0.35847C7.00576 -0.11949 6.19431 -0.11949 5.95131 0.35847L4.33276 3.52949L0.710909 4.0382C0.437534 4.07593 0.211892 4.26041 0.126553 4.51336C0.0412137 4.76632 0.112089 5.04303 0.308803 5.2289L2.92973 7.69696L2.3121 11.1824C2.26437 11.4438 2.37575 11.7093 2.5985 11.8658C2.82269 12.0238 3.11921 12.0433 3.36076 11.9189L6.59931 10.274L9.8393 11.9189C9.94489 11.972 10.0606 11.9986 10.1763 11.9986C10.3253 11.9986 10.4757 11.9539 10.6016 11.8658C10.8229 11.7093 10.9342 11.4438 10.888 11.1824L10.2703 7.69696L12.8913 5.2289C13.088 5.04303 13.1589 4.76632 13.0735 4.51336Z" fill="#FFFFFF"/>
<path d="M12.4892 4.0382L12.2805 5.52362L12.2841 5.52411L12.4892 4.0382ZM8.86731 3.52949L7.53128
4.21143L7.886 4.90639L8.65867 5.01491L8.86731 3.52949ZM7.24875 0.35847L5.91164 1.03827L5.91273 1.0404L7.24875 0.35847ZM5.95131 0.35847L7.28734 1.0404L7.28842 1.03827L5.95131 0.35847ZM4.33276 3.52949L4.54139 5.01491L5.31406 4.90639L5.66879 4.21143L4.33276 3.52949ZM0.710909 4.0382L0.916009 5.52411L0.919543 5.52362L0.710909 4.0382ZM0.308803 5.2289L-0.721391 6.31918L-0.719533 6.32093L0.308803 5.2289ZM2.92973 7.69696L4.40672 7.95868L4.54814 7.16059L3.95806 6.60493L2.92973 7.69696ZM2.3121 11.1824L3.78771 11.4519L3.78909 11.4442L2.3121 11.1824ZM2.5985 11.8658L3.4623 10.6395L3.46091 10.6385L2.5985 11.8658ZM3.36076 11.9189L2.68148 10.5815L2.67407 10.5854L3.36076 11.9189ZM6.59931 10.274L7.27834 8.93653L6.59916 8.59171L5.92003 8.93665L6.59931 10.274ZM9.8393 11.9189L9.16026 13.2564L9.16532 13.259L9.8393 11.9189ZM10.6016 11.8658L11.4615 13.0949L11.4677 13.0905L10.6016 11.8658ZM10.888 11.1824L12.365 10.9208L12.365 10.9207L10.888 11.1824ZM10.2703 7.69696L9.242 6.60493L8.65193 7.16059L8.79335 7.95868L10.2703 7.69696ZM12.8913 5.2289L13.9196 6.32093L13.9215 6.31918L12.8913 5.2289ZM14.4948 4.03386C14.2218 3.22462 13.5126 2.66525 12.6943 2.55229L12.2841 5.52411C12.0124 5.48662 11.7546 5.2962 11.6522 4.99286L14.4948 4.03386ZM12.6978 2.55278L9.07594 2.04407L8.65867 5.01491L12.2805 5.52362L12.6978 2.55278ZM10.2033 2.84756L8.58478 -0.323464L5.91273 1.0404L7.53128 4.21143L10.2033 2.84756ZM8.58587 -0.321332C8.14061 -1.19712 7.26083 -1.5 6.60003 -1.5C5.93923 -1.5 5.05946 -1.19712 4.6142 -0.321332L7.28842 1.03827C7.08616 1.4361 6.73361 1.5 6.60003 1.5C6.46646 1.5 6.1139 1.4361 5.91164 1.03827L8.58587 -0.321332ZM4.61528 -0.323464L2.99673 2.84756L5.66879 4.21143L7.28734 1.0404L4.61528 -0.323464ZM4.12413 2.04407L0.502275 2.55278L0.919543 5.52362L4.54139 5.01491L4.12413 2.04407ZM0.50581 2.55229C-0.31258 2.66525 -1.02173 3.22462 -1.29474 4.03386L1.54785 4.99286C1.44551 5.2962 1.18765 5.48662 0.916008 5.52411L0.50581 2.55229ZM-1.29474 4.03386C-1.57147 4.85411 -1.33394 5.74039 -0.72139 6.31918L1.33899 4.13863C1.55812 4.34567 1.65389 4.67853 1.54785 4.99286L-1.29474 4.03386ZM-0.719533 6.32093L1.90139 8.78899L3.95806 6.60493L1.33714 4.13688L-0.719533 6.32093ZM1.45274 7.43524L0.835112 10.9207L3.78909 11.4442L4.40672 7.95868L1.45274 7.43524ZM0.836513 10.9129C0.680165 11.769 1.05027 12.6112 1.73608 13.0931L3.46091 10.6385C3.70122 10.8074 3.84858 11.1186 3.78769 11.4519L0.836513 10.9129ZM1.73469 13.0921C2.4165 13.5724 3.31054 13.632 4.04746 13.2525L2.67407 10.5854C2.92788 10.4547 3.22888 10.4751 3.4623 10.6395L1.73469 13.0921ZM4.04004 13.2563L7.27858 11.6114L5.92003 8.93665L2.68149 10.5816L4.04004 13.2563ZM5.92028 11.6115L9.16027 13.2564L10.5183 10.5814L7.27834 8.93653L5.92028 11.6115ZM9.16532 13.259C9.4847 13.4196 9.83184 13.4986 10.1763 13.4986V10.4986C10.2894 10.4986 10.4051 10.5245 10.5133 10.5789L9.16532 13.259ZM10.1763 13.4986C10.6198 13.4986 11.0731 13.3666 11.4615 13.0949L9.74165 10.6368C9.87841 10.5411 10.0308 10.4986 10.1763 10.4986V13.4986ZM11.4677 13.0905C12.1497 12.6082 12.5154 11.7702 12.365 10.9208L9.41095 11.444C9.35308 11.1173 9.49608 10.8105 9.7354 10.6412L11.4677 13.0905ZM12.365 10.9207L11.7473 7.43524L8.79335 7.95868L9.41097 11.4442L12.365 10.9207ZM11.2987 8.78899L13.9196 6.32093L11.8629 4.13688L9.242 6.60493L11.2987 8.78899ZM13.9215 6.31918C14.534 5.74039 14.7715 4.85411 14.4948 4.03386L11.6522 4.99286C11.5462 4.67853 11.6419 4.34567 11.8611 4.13863L13.9215 6.31918Z" fill="#FFFFFF" mask="url(#path-1-inside-1)"
    />
</svg>
